<mxfile host="app.diagrams.net" modified="2023-05-28T21:45:18.945Z" agent="Mozilla/5.0 (Windows NT 10.0; Win64; x64) AppleWebKit/537.36 (KHTML, like Gecko) Chrome/113.0.0.0 Safari/537.36" etag="s8xX40id3XKx8GYiZgAe" version="21.3.4" type="device">
  <diagram name="Page-1" id="O16oIW7MTGFbL38wEt7E">
    <mxGraphModel dx="2022" dy="633" grid="1" gridSize="10" guides="1" tooltips="1" connect="1" arrows="1" fold="1" page="1" pageScale="1" pageWidth="827" pageHeight="1169" math="0" shadow="0">
      <root>
        <mxCell id="0" />
        <mxCell id="1" parent="0" />
        <mxCell id="eCMuN70A0XHilftcNr7w-8" style="edgeStyle=orthogonalEdgeStyle;rounded=0;orthogonalLoop=1;jettySize=auto;html=1;exitX=1;exitY=0.5;exitDx=0;exitDy=0;entryX=0;entryY=0.5;entryDx=0;entryDy=0;" parent="1" source="eCMuN70A0XHilftcNr7w-1" target="eCMuN70A0XHilftcNr7w-4" edge="1">
          <mxGeometry relative="1" as="geometry" />
        </mxCell>
        <mxCell id="eCMuN70A0XHilftcNr7w-11" style="edgeStyle=orthogonalEdgeStyle;rounded=0;orthogonalLoop=1;jettySize=auto;html=1;exitX=0.5;exitY=1;exitDx=0;exitDy=0;entryX=0.5;entryY=0;entryDx=0;entryDy=0;" parent="1" source="eCMuN70A0XHilftcNr7w-1" target="eCMuN70A0XHilftcNr7w-6" edge="1">
          <mxGeometry relative="1" as="geometry" />
        </mxCell>
        <mxCell id="eCMuN70A0XHilftcNr7w-1" value="1" style="ellipse;whiteSpace=wrap;html=1;aspect=fixed;fillColor=#dae8fc;strokeColor=#6c8ebf;" parent="1" vertex="1">
          <mxGeometry x="479.94" y="130" width="40" height="40" as="geometry" />
        </mxCell>
        <mxCell id="eCMuN70A0XHilftcNr7w-2" value="&lt;div&gt;void helper_function(int n)&lt;/div&gt;&lt;div&gt;{&lt;/div&gt;&lt;div&gt;&lt;span style=&quot;background-color: rgb(204, 229, 255);&quot;&gt;&amp;nbsp; &amp;nbsp; pq.pop();&lt;/span&gt;&lt;/div&gt;&lt;div&gt;&lt;span style=&quot;background-color: rgb(204, 229, 255);&quot;&gt;&amp;nbsp; &amp;nbsp; stack_[n] = true;&lt;/span&gt;&lt;/div&gt;&lt;div&gt;&lt;span style=&quot;background-color: rgb(204, 229, 255);&quot;&gt;&amp;nbsp; &amp;nbsp; visited_childs = vector&amp;lt;bool&amp;gt;(number_of_tasks + 1, false);&lt;/span&gt;&lt;/div&gt;&lt;div&gt;&lt;span style=&quot;background-color: rgb(204, 229, 255);&quot;&gt;&amp;nbsp; &amp;nbsp; visited_parents = vector&amp;lt;bool&amp;gt;(number_of_tasks + 1, false);&lt;/span&gt;&lt;/div&gt;&lt;div&gt;&lt;br&gt;&lt;/div&gt;&lt;div&gt;&amp;nbsp; &amp;nbsp; &lt;span style=&quot;background-color: rgb(255, 204, 204);&quot;&gt;if (am_I_a_bottleneck(n))&lt;/span&gt;&lt;/div&gt;&lt;div&gt;&amp;nbsp; &amp;nbsp; {&lt;/div&gt;&lt;div&gt;&lt;span style=&quot;background-color: rgb(255, 204, 204);&quot;&gt;&amp;nbsp; &amp;nbsp; &amp;nbsp; &amp;nbsp; cout &amp;lt;&amp;lt; n &amp;lt;&amp;lt; endl;&lt;/span&gt;&lt;/div&gt;&lt;div&gt;&amp;nbsp; &amp;nbsp; }&lt;/div&gt;&lt;div&gt;&lt;br&gt;&lt;/div&gt;&lt;div&gt;&amp;nbsp; &amp;nbsp; // call childs&lt;/div&gt;&lt;div&gt;&amp;nbsp; &amp;nbsp; &lt;span style=&quot;background-color: rgb(255, 230, 204);&quot;&gt;for (unsigned long int i = 0; i &amp;lt; childs[n].size(); ++i)&lt;/span&gt;&lt;/div&gt;&lt;div&gt;&amp;nbsp; &amp;nbsp; {&lt;/div&gt;&lt;div&gt;&lt;span style=&quot;background-color: rgb(255, 230, 204);&quot;&gt;&amp;nbsp; &amp;nbsp; &amp;nbsp; &amp;nbsp; int visit = childs[n][i];&lt;/span&gt;&lt;/div&gt;&lt;div&gt;&lt;span style=&quot;background-color: rgb(255, 230, 204);&quot;&gt;&amp;nbsp; &amp;nbsp; &amp;nbsp; &amp;nbsp; degree[visit]++;&lt;/span&gt;&lt;/div&gt;&lt;div&gt;&lt;br&gt;&lt;/div&gt;&lt;div&gt;&lt;span style=&quot;background-color: rgb(229, 204, 255);&quot;&gt;&amp;nbsp; &amp;nbsp; &amp;nbsp; &amp;nbsp; if (stack_[visit] == false &amp;amp;&amp;amp; (degree[visit] == (int)parents[visit].size()))&lt;/span&gt;&lt;/div&gt;&lt;div&gt;&amp;nbsp; &amp;nbsp; &amp;nbsp; &amp;nbsp; {&lt;/div&gt;&lt;div&gt;&amp;nbsp; &amp;nbsp; &amp;nbsp; &amp;nbsp; &amp;nbsp; &amp;nbsp; &lt;span style=&quot;background-color: rgb(229, 204, 255);&quot;&gt;pq.push(visit);&lt;/span&gt;&lt;/div&gt;&lt;div&gt;&amp;nbsp; &amp;nbsp; &amp;nbsp; &amp;nbsp; }&lt;/div&gt;&lt;div&gt;&amp;nbsp; &amp;nbsp; }&lt;/div&gt;&lt;div&gt;&lt;br&gt;&lt;/div&gt;&lt;div&gt;&amp;nbsp; &amp;nbsp; &lt;span style=&quot;background-color: rgb(204, 255, 204);&quot;&gt;if (!pq.empty())&lt;/span&gt;&lt;/div&gt;&lt;div&gt;&amp;nbsp; &amp;nbsp; {&lt;/div&gt;&lt;div&gt;&lt;span style=&quot;background-color: rgb(204, 229, 255);&quot;&gt;&amp;nbsp; &amp;nbsp; &amp;nbsp; &amp;nbsp; helper_function(pq.top());&lt;/span&gt;&lt;/div&gt;&lt;div&gt;&amp;nbsp; &amp;nbsp; }&lt;/div&gt;&lt;div&gt;}&lt;/div&gt;" style="text;html=1;strokeColor=none;fillColor=none;align=left;verticalAlign=middle;whiteSpace=wrap;rounded=0;" parent="1" vertex="1">
          <mxGeometry x="-90" y="40" width="400" height="440" as="geometry" />
        </mxCell>
        <mxCell id="eCMuN70A0XHilftcNr7w-27" style="edgeStyle=orthogonalEdgeStyle;orthogonalLoop=1;jettySize=auto;html=1;exitX=0;exitY=1;exitDx=0;exitDy=0;entryX=1;entryY=0;entryDx=0;entryDy=0;strokeColor=none;curved=1;" parent="1" source="eCMuN70A0XHilftcNr7w-4" target="eCMuN70A0XHilftcNr7w-6" edge="1">
          <mxGeometry relative="1" as="geometry" />
        </mxCell>
        <mxCell id="eCMuN70A0XHilftcNr7w-30" style="edgeStyle=orthogonalEdgeStyle;orthogonalLoop=1;jettySize=auto;html=1;exitX=0.5;exitY=1;exitDx=0;exitDy=0;entryX=0.5;entryY=0;entryDx=0;entryDy=0;curved=1;" parent="1" source="eCMuN70A0XHilftcNr7w-4" target="eCMuN70A0XHilftcNr7w-6" edge="1">
          <mxGeometry relative="1" as="geometry" />
        </mxCell>
        <mxCell id="eCMuN70A0XHilftcNr7w-31" style="edgeStyle=orthogonalEdgeStyle;orthogonalLoop=1;jettySize=auto;html=1;exitX=0.5;exitY=1;exitDx=0;exitDy=0;entryX=0.5;entryY=0;entryDx=0;entryDy=0;curved=1;" parent="1" source="eCMuN70A0XHilftcNr7w-4" target="eCMuN70A0XHilftcNr7w-5" edge="1">
          <mxGeometry relative="1" as="geometry" />
        </mxCell>
        <mxCell id="eCMuN70A0XHilftcNr7w-4" value="2" style="ellipse;whiteSpace=wrap;html=1;aspect=fixed;fillColor=#f8cecc;strokeColor=#b85450;" parent="1" vertex="1">
          <mxGeometry x="579.94" y="130" width="40" height="40" as="geometry" />
        </mxCell>
        <mxCell id="eCMuN70A0XHilftcNr7w-10" style="edgeStyle=orthogonalEdgeStyle;rounded=0;orthogonalLoop=1;jettySize=auto;html=1;exitX=0;exitY=0.5;exitDx=0;exitDy=0;" parent="1" source="eCMuN70A0XHilftcNr7w-5" target="eCMuN70A0XHilftcNr7w-6" edge="1">
          <mxGeometry relative="1" as="geometry" />
        </mxCell>
        <mxCell id="eCMuN70A0XHilftcNr7w-5" value="3" style="ellipse;whiteSpace=wrap;html=1;aspect=fixed;fillColor=#f8cecc;strokeColor=#b85450;" parent="1" vertex="1">
          <mxGeometry x="670" y="240" width="40" height="40" as="geometry" />
        </mxCell>
        <mxCell id="eCMuN70A0XHilftcNr7w-33" style="edgeStyle=orthogonalEdgeStyle;rounded=0;orthogonalLoop=1;jettySize=auto;html=1;exitX=0.5;exitY=1;exitDx=0;exitDy=0;entryX=0.5;entryY=0;entryDx=0;entryDy=0;" parent="1" source="eCMuN70A0XHilftcNr7w-6" target="eCMuN70A0XHilftcNr7w-13" edge="1">
          <mxGeometry relative="1" as="geometry" />
        </mxCell>
        <mxCell id="eCMuN70A0XHilftcNr7w-39" style="edgeStyle=orthogonalEdgeStyle;rounded=0;orthogonalLoop=1;jettySize=auto;html=1;" parent="1" source="eCMuN70A0XHilftcNr7w-6" target="eCMuN70A0XHilftcNr7w-19" edge="1">
          <mxGeometry relative="1" as="geometry" />
        </mxCell>
        <mxCell id="eCMuN70A0XHilftcNr7w-6" value="4" style="ellipse;whiteSpace=wrap;html=1;aspect=fixed;fillColor=#ffe6cc;strokeColor=#d79b00;" parent="1" vertex="1">
          <mxGeometry x="479.94" y="240" width="40" height="40" as="geometry" />
        </mxCell>
        <mxCell id="eCMuN70A0XHilftcNr7w-36" style="edgeStyle=orthogonalEdgeStyle;rounded=0;orthogonalLoop=1;jettySize=auto;html=1;exitX=1;exitY=0.5;exitDx=0;exitDy=0;entryX=0;entryY=0.5;entryDx=0;entryDy=0;" parent="1" source="eCMuN70A0XHilftcNr7w-13" target="eCMuN70A0XHilftcNr7w-15" edge="1">
          <mxGeometry relative="1" as="geometry" />
        </mxCell>
        <mxCell id="eCMuN70A0XHilftcNr7w-42" style="edgeStyle=orthogonalEdgeStyle;orthogonalLoop=1;jettySize=auto;html=1;exitX=0;exitY=0.5;exitDx=0;exitDy=0;entryX=0;entryY=1;entryDx=0;entryDy=0;curved=1;" parent="1" source="eCMuN70A0XHilftcNr7w-13" target="eCMuN70A0XHilftcNr7w-6" edge="1">
          <mxGeometry relative="1" as="geometry">
            <Array as="points">
              <mxPoint x="410" y="370" />
              <mxPoint x="410" y="300" />
              <mxPoint x="486" y="300" />
            </Array>
          </mxGeometry>
        </mxCell>
        <mxCell id="eCMuN70A0XHilftcNr7w-13" value="5" style="ellipse;whiteSpace=wrap;html=1;aspect=fixed;fillColor=#ffe6cc;strokeColor=#d79b00;" parent="1" vertex="1">
          <mxGeometry x="479.93999999999994" y="350" width="40" height="40" as="geometry" />
        </mxCell>
        <mxCell id="eCMuN70A0XHilftcNr7w-35" style="edgeStyle=orthogonalEdgeStyle;orthogonalLoop=1;jettySize=auto;html=1;exitX=0;exitY=0;exitDx=0;exitDy=0;entryX=1;entryY=1;entryDx=0;entryDy=0;curved=1;" parent="1" source="eCMuN70A0XHilftcNr7w-15" target="eCMuN70A0XHilftcNr7w-6" edge="1">
          <mxGeometry relative="1" as="geometry">
            <Array as="points">
              <mxPoint x="586" y="315" />
              <mxPoint x="514" y="315" />
            </Array>
          </mxGeometry>
        </mxCell>
        <mxCell id="eCMuN70A0XHilftcNr7w-41" style="edgeStyle=orthogonalEdgeStyle;rounded=0;orthogonalLoop=1;jettySize=auto;html=1;entryX=0;entryY=0.5;entryDx=0;entryDy=0;" parent="1" source="eCMuN70A0XHilftcNr7w-15" target="eCMuN70A0XHilftcNr7w-17" edge="1">
          <mxGeometry relative="1" as="geometry" />
        </mxCell>
        <mxCell id="eCMuN70A0XHilftcNr7w-15" value="6" style="ellipse;whiteSpace=wrap;html=1;aspect=fixed;fillColor=#e1d5e7;strokeColor=#9673a6;" parent="1" vertex="1">
          <mxGeometry x="579.94" y="350" width="40" height="40" as="geometry" />
        </mxCell>
        <mxCell id="eCMuN70A0XHilftcNr7w-38" style="edgeStyle=orthogonalEdgeStyle;orthogonalLoop=1;jettySize=auto;html=1;exitX=0;exitY=0;exitDx=0;exitDy=0;entryX=1;entryY=1;entryDx=0;entryDy=0;curved=1;" parent="1" source="eCMuN70A0XHilftcNr7w-17" target="eCMuN70A0XHilftcNr7w-6" edge="1">
          <mxGeometry relative="1" as="geometry">
            <Array as="points">
              <mxPoint x="676" y="295" />
              <mxPoint x="514" y="295" />
            </Array>
          </mxGeometry>
        </mxCell>
        <mxCell id="eCMuN70A0XHilftcNr7w-17" value="7" style="ellipse;whiteSpace=wrap;html=1;aspect=fixed;fillColor=#e1d5e7;strokeColor=#9673a6;" parent="1" vertex="1">
          <mxGeometry x="670" y="350" width="40" height="40" as="geometry" />
        </mxCell>
        <mxCell id="eCMuN70A0XHilftcNr7w-40" style="edgeStyle=orthogonalEdgeStyle;rounded=0;orthogonalLoop=1;jettySize=auto;html=1;exitX=0.5;exitY=0;exitDx=0;exitDy=0;entryX=0;entryY=0.5;entryDx=0;entryDy=0;" parent="1" source="eCMuN70A0XHilftcNr7w-19" target="eCMuN70A0XHilftcNr7w-1" edge="1">
          <mxGeometry relative="1" as="geometry" />
        </mxCell>
        <mxCell id="eCMuN70A0XHilftcNr7w-19" value="8" style="ellipse;whiteSpace=wrap;html=1;aspect=fixed;fillColor=#d5e8d4;strokeColor=#82b366;" parent="1" vertex="1">
          <mxGeometry x="360" y="240" width="40" height="40" as="geometry" />
        </mxCell>
        <mxCell id="CP4uF9dFGmR1EgEWL_tz-3" value="1" style="ellipse;whiteSpace=wrap;html=1;aspect=fixed;fillColor=#dae8fc;strokeColor=#6c8ebf;" vertex="1" parent="1">
          <mxGeometry x="260" y="90" width="20" height="20" as="geometry" />
        </mxCell>
        <mxCell id="CP4uF9dFGmR1EgEWL_tz-4" value="2" style="ellipse;whiteSpace=wrap;html=1;aspect=fixed;fillColor=#f8cecc;strokeColor=#b85450;" vertex="1" parent="1">
          <mxGeometry x="70" y="150" width="20" height="20" as="geometry" />
        </mxCell>
        <mxCell id="CP4uF9dFGmR1EgEWL_tz-5" value="3" style="ellipse;whiteSpace=wrap;html=1;aspect=fixed;fillColor=#f8cecc;strokeColor=#b85450;" vertex="1" parent="1">
          <mxGeometry x="48" y="177" width="20" height="20" as="geometry" />
        </mxCell>
        <mxCell id="CP4uF9dFGmR1EgEWL_tz-7" value="4" style="ellipse;whiteSpace=wrap;html=1;aspect=fixed;fillColor=#ffe6cc;strokeColor=#d79b00;" vertex="1" parent="1">
          <mxGeometry x="200" y="235" width="20" height="20" as="geometry" />
        </mxCell>
        <mxCell id="CP4uF9dFGmR1EgEWL_tz-8" value="5" style="ellipse;whiteSpace=wrap;html=1;aspect=fixed;fillColor=#ffe6cc;strokeColor=#d79b00;" vertex="1" parent="1">
          <mxGeometry x="52.99999999999994" y="274" width="20" height="20" as="geometry" />
        </mxCell>
        <mxCell id="CP4uF9dFGmR1EgEWL_tz-9" value="6" style="ellipse;whiteSpace=wrap;html=1;aspect=fixed;fillColor=#e1d5e7;strokeColor=#9673a6;" vertex="1" parent="1">
          <mxGeometry x="310.00000000000006" y="308" width="20" height="20" as="geometry" />
        </mxCell>
        <mxCell id="CP4uF9dFGmR1EgEWL_tz-10" value="7" style="ellipse;whiteSpace=wrap;html=1;aspect=fixed;fillColor=#e1d5e7;strokeColor=#9673a6;" vertex="1" parent="1">
          <mxGeometry x="35" y="337" width="20" height="20" as="geometry" />
        </mxCell>
        <mxCell id="CP4uF9dFGmR1EgEWL_tz-11" value="8" style="ellipse;whiteSpace=wrap;html=1;aspect=fixed;fillColor=#d5e8d4;strokeColor=#82b366;" vertex="1" parent="1">
          <mxGeometry x="10" y="394" width="20" height="20" as="geometry" />
        </mxCell>
      </root>
    </mxGraphModel>
  </diagram>
</mxfile>
